# xmcd CD database file
#
# Track frame offsets:
#	150
#	17540
#	31392
#	50025
#	66725
#	111025
#	192712
#
# Disc length: 2641 seconds
#
# Revision: 1
# Processed by: cddbd v1.4PL0 Copyright (c) Steve Scherf et al.
# Submitted via: Feurio! 1.65 - http://www.feurio.com
#
DISCID=660a4f07
DTITLE=Black Cat Bone - Delta Blues
DYEAR=1900
DGENRE=
TTITLE0=Treat Me Right
TTITLE1=Larry Is Back
TTITLE2=Ain't Doin' Too Bad
TTITLE3=Just A Fool
TTITLE4=Reconsider Baby
TTITLE5=Delta Blues
TTITLE6=A Hachch'n A Maji
EXTD=
EXTT0=
EXTT1=
EXTT2=
EXTT3=
EXTT4=
EXTT5=
EXTT6=
PLAYORDER=
